<mxfile host="Electron" modified="2023-06-07T01:34:44.044Z" agent="Mozilla/5.0 (Macintosh; Intel Mac OS X 10_15_7) AppleWebKit/537.36 (KHTML, like Gecko) draw.io/21.2.8 Chrome/112.0.5615.165 Electron/24.2.0 Safari/537.36" etag="o11ot0L_IENS6JXcLejq" version="21.2.8" type="device">
  <diagram name="Page-1" id="CQKYAZUyW5n72rebpFf3">
    <mxGraphModel dx="1114" dy="789" grid="1" gridSize="10" guides="1" tooltips="1" connect="1" arrows="1" fold="1" page="1" pageScale="1" pageWidth="850" pageHeight="1100" math="0" shadow="0">
      <root>
        <mxCell id="0" />
        <mxCell id="1" parent="0" />
        <mxCell id="l7utE99WKTkFxfxXcq3A-1" value="&lt;b id=&quot;docs-internal-guid-f1799100-7fff-dba2-8802-8b64967f6c6b&quot; style=&quot;font-weight:normal;&quot;&gt;&lt;p style=&quot;line-height:1.2;margin-top:0pt;margin-bottom:0pt;&quot; dir=&quot;ltr&quot;&gt;&lt;span style=&quot;font-size: 18pt; font-family: &amp;quot;Courier New&amp;quot;; color: rgb(0, 0, 0); background-color: transparent; font-weight: 400; font-style: normal; font-variant: normal; text-decoration: none; vertical-align: baseline;&quot;&gt;@base &amp;lt;https://metadatafram.es/&amp;gt; .&lt;/span&gt;&lt;/p&gt;&lt;p style=&quot;line-height:1.2;margin-top:0pt;margin-bottom:0pt;&quot; dir=&quot;ltr&quot;&gt;&lt;span style=&quot;font-size: 18pt; font-family: &amp;quot;Courier New&amp;quot;; color: rgb(0, 0, 0); background-color: transparent; font-weight: 400; font-style: normal; font-variant: normal; text-decoration: none; vertical-align: baseline;&quot;&gt;@prefix foaf: &amp;lt;http://xmlns.com/foaf/0.1/&amp;gt; .&lt;/span&gt;&lt;/p&gt;&lt;br&gt;&lt;p style=&quot;line-height:1.2;margin-top:0pt;margin-bottom:0pt;&quot; dir=&quot;ltr&quot;&gt;&lt;span style=&quot;font-size: 18pt; font-family: &amp;quot;Courier New&amp;quot;; color: rgb(0, 0, 0); background-color: transparent; font-weight: 400; font-style: normal; font-variant: normal; text-decoration: none; vertical-align: baseline;&quot;&gt;&amp;lt;alicia&amp;gt; foaf:name &quot;Alicia&quot; ; foaf:nick &quot;Al&quot; .&lt;/span&gt;&lt;/p&gt;&lt;/b&gt;" style="text;whiteSpace=wrap;html=1;" vertex="1" parent="1">
          <mxGeometry width="670" height="210" as="geometry" />
        </mxCell>
        <mxCell id="l7utE99WKTkFxfxXcq3A-2" value="" style="ellipse;whiteSpace=wrap;html=1;aspect=fixed;fillColor=none;fontColor=#ffffff;strokeColor=#FF0000;" vertex="1" parent="1">
          <mxGeometry x="372" y="54" width="80" height="80" as="geometry" />
        </mxCell>
        <mxCell id="l7utE99WKTkFxfxXcq3A-4" value="" style="endArrow=classic;html=1;rounded=0;" edge="1" parent="1" source="l7utE99WKTkFxfxXcq3A-2" target="l7utE99WKTkFxfxXcq3A-5">
          <mxGeometry width="50" height="50" relative="1" as="geometry">
            <mxPoint x="400" y="220" as="sourcePoint" />
            <mxPoint x="450" y="170" as="targetPoint" />
          </mxGeometry>
        </mxCell>
        <mxCell id="l7utE99WKTkFxfxXcq3A-5" value="&lt;font style=&quot;font-size: 14px;&quot;&gt;Notice the spacing around punctuation. (Not required, but makes the syntax easier to read.)&lt;/font&gt;" style="text;html=1;strokeColor=default;fillColor=none;align=center;verticalAlign=middle;whiteSpace=wrap;rounded=0;" vertex="1" parent="1">
          <mxGeometry x="70" y="170" width="590" height="30" as="geometry" />
        </mxCell>
      </root>
    </mxGraphModel>
  </diagram>
</mxfile>
